<?xml version="1.0" standalone="no"?>
<!DOCTYPE svg PUBLIC "-//W3C//DTD SVG 20010904//EN"
 "http://www.w3.org/TR/2001/REC-SVG-20010904/DTD/svg10.dtd">
<svg version="1.0" xmlns="http://www.w3.org/2000/svg"
 width="260.000000pt" height="260.000000pt" viewBox="0 0 260.000000 260.000000"
 preserveAspectRatio="xMidYMid meet">
<metadata>
Created by potrace 1.11, written by Peter Selinger 2001-2013
</metadata>
<g transform="translate(0.000000,260.000000) scale(0.100000,-0.100000)"
fill="#000000" stroke="none">
<path d="M0 1300 l0 -1300 1300 0 1300 0 0 1300 0 1300 -1300 0 -1300 0 0
-1300z m1494 839 c20 -9 29 -9 41 1 13 11 18 11 29 -1 15 -16 36 -94 36 -134
0 -22 -4 -26 -22 -23 -16 2 -31 19 -48 52 -33 63 -65 80 -91 47 -18 -22 -19
-40 -17 -245 3 -213 4 -221 23 -221 19 0 20 8 23 118 2 80 -1 117 -8 117 -6 0
-10 12 -8 28 3 27 4 27 85 30 72 2 83 0 92 -16 7 -14 6 -24 -4 -38 -11 -14
-14 -53 -15 -152 0 -149 -6 -160 -59 -121 -29 21 -32 21 -49 6 -45 -41 -127
-26 -169 31 -54 75 -78 226 -53 342 29 139 126 219 214 179z m393 0 c15 -6 37
-19 48 -29 21 -19 21 -19 39 11 16 28 20 29 34 16 13 -14 13 -19 -7 -52 -20
-35 -21 -38 -5 -92 24 -82 16 -250 -15 -321 -13 -29 -36 -63 -52 -76 -52 -44
-134 -46 -179 -4 l-23 22 -22 -28 c-37 -46 -62 -11 -29 39 15 23 15 30 0 90
-31 124 -14 286 38 366 39 59 109 83 173 58z m-1499 -10 c71 -25 112 -124 112
-275 0 -97 -19 -180 -52 -227 -34 -48 -65 -57 -198 -57 -111 0 -120 1 -120 19
0 10 7 24 15 31 13 10 15 50 15 236 0 125 -4 224 -9 224 -13 0 -21 27 -15 45
5 12 27 15 114 15 59 0 121 -5 138 -11z m422 -11 c48 -33 72 -70 77 -120 7
-56 -17 -113 -56 -135 l-29 -17 36 -31 c33 -29 36 -36 43 -111 4 -43 10 -91
14 -106 l7 -28 -65 0 c-39 0 -69 5 -75 13 -5 6 -12 58 -14 115 -2 78 -7 105
-18 112 -8 5 -19 8 -25 7 -14 -5 -19 -177 -5 -191 5 -5 10 -20 10 -33 0 -22
-3 -23 -90 -23 -84 0 -90 1 -90 21 0 11 7 27 15 35 22 23 22 436 0 454 -8 7
-15 23 -15 36 0 24 0 24 124 24 111 0 126 -2 156 -22z m335 12 c4 -6 22 -117
42 -248 19 -130 41 -247 49 -259 30 -47 21 -53 -76 -53 -80 0 -90 2 -90 18 0
10 5 23 11 29 6 6 9 23 7 39 -3 26 -7 29 -44 32 -38 3 -42 1 -46 -22 -3 -15 1
-34 8 -43 7 -10 14 -26 14 -35 0 -15 -9 -18 -55 -18 -61 0 -65 6 -40 62 22 51
79 438 66 451 -6 6 -11 21 -11 34 0 22 3 23 79 23 44 0 83 -5 86 -10z m1175
-8 c52 -26 80 -74 80 -139 0 -61 -20 -104 -57 -124 -28 -15 -29 -26 -3 -34 30
-9 48 -43 54 -100 3 -27 8 -74 11 -102 l6 -53 -66 0 c-61 0 -66 2 -75 26 -6
14 -10 65 -10 113 0 87 -8 111 -38 111 -11 0 -13 -21 -10 -107 2 -60 6 -115 9
-123 3 -12 -11 -16 -82 -18 -74 -2 -88 0 -93 14 -4 9 0 24 9 34 22 25 23 458
0 466 -15 6 -20 35 -8 47 3 4 58 7 122 7 90 0 124 -4 151 -18z m-1185 -845
c11 1 29 3 39 5 22 4 33 -26 38 -105 3 -47 1 -52 -19 -55 -18 -3 -27 7 -48 51
-27 59 -51 78 -62 50 -4 -11 20 -68 67 -156 64 -124 73 -148 78 -207 3 -49 0
-74 -12 -98 -25 -49 -51 -61 -133 -59 l-72 1 -5 30 c-3 17 -8 55 -12 84 -6 50
-6 52 18 52 19 0 29 -10 49 -52 24 -51 51 -79 65 -66 17 18 2 62 -54 161 -68
118 -92 180 -92 232 0 82 56 153 110 138 14 -3 34 -6 45 -6z m1061 4 c68 -19
116 -89 135 -195 23 -134 -4 -271 -67 -345 -31 -35 -34 -36 -101 -36 -66 0
-70 1 -101 35 -54 60 -76 129 -76 250 0 84 5 116 22 161 43 108 108 153 188
130z m-1562 -11 c55 -12 87 -48 93 -102 6 -53 -16 -103 -52 -120 -30 -14 -32
-25 -5 -33 10 -3 31 -20 45 -36 21 -26 25 -41 25 -95 0 -140 -61 -183 -256
-184 -70 0 -95 4 -104 15 -10 13 -10 19 4 33 14 16 16 49 16 245 0 127 -4 227
-9 227 -15 0 -22 32 -10 46 13 16 189 19 253 4z m334 -13 c2 -11 -5 -25 -17
-33 -20 -15 -21 -23 -21 -229 0 -176 3 -216 15 -229 8 -8 15 -26 15 -40 0 -26
-1 -26 -79 -26 -44 0 -86 3 -95 6 -20 8 -21 43 -1 50 22 9 22 452 0 460 -18 7
-20 50 -2 58 6 2 50 4 97 3 74 -2 85 -4 88 -20z m578 15 c7 -4 13 -34 15 -67
4 -58 3 -60 -20 -60 -20 0 -27 7 -34 35 -21 85 -27 46 -27 -183 0 -132 4 -237
9 -237 15 0 22 -32 10 -46 -16 -19 -162 -19 -178 0 -12 14 -5 46 10 46 5 0 9
104 9 236 0 184 -3 235 -12 232 -7 -3 -14 -13 -16 -24 -8 -57 -13 -64 -37 -64
-24 0 -25 3 -25 58 0 32 5 63 12 70 13 13 264 17 284 4z m314 -14 c66 -34 85
-67 85 -145 0 -64 -1 -66 -43 -103 -40 -36 -41 -39 -22 -45 37 -12 60 -63 60
-132 0 -34 5 -74 12 -88 10 -22 9 -28 -3 -36 -17 -11 -99 -12 -116 -1 -22 14
-33 63 -33 153 0 89 0 89 -26 89 l-25 0 5 -92 c2 -51 6 -106 8 -123 l3 -30
-85 0 c-81 0 -85 1 -88 23 -2 12 4 29 12 38 13 13 15 47 13 231 -1 163 -5 217
-14 221 -14 4 -18 44 -6 55 3 4 54 7 113 7 90 0 112 -3 150 -22z"/>
<path d="M1817 2093 c-4 -3 -7 -58 -7 -122 l0 -116 25 37 c22 32 25 48 25 122
0 77 -2 86 -18 86 -10 0 -22 -3 -25 -7z"/>
<path d="M1833 1800 c-29 -49 -34 -177 -7 -187 28 -11 35 13 32 120 l-3 106
-22 -39z"/>
<path d="M300 1850 c0 -204 2 -240 15 -240 8 0 19 9 25 19 11 21 15 418 4 445
-3 9 -15 16 -25 16 -18 0 -19 -11 -19 -240z"/>
<path d="M690 1981 c0 -113 8 -137 37 -108 20 20 29 150 14 190 -7 17 -18 27
-31 27 -19 0 -20 -6 -20 -109z"/>
<path d="M1041 1970 c-1 -8 -8 -60 -16 -114 -8 -55 -15 -105 -15 -113 0 -14
55 -19 63 -5 3 4 -3 61 -13 127 -10 66 -18 113 -19 105z"/>
<path d="M2210 1980 c0 -99 3 -120 15 -120 25 0 35 36 35 122 0 87 -4 100 -32
111 -17 6 -18 -4 -18 -113z"/>
<path d="M2140 1221 c-11 -21 -14 -409 -4 -449 5 -16 13 -22 28 -20 21 3 21 8
24 223 1 121 0 230 -3 243 -7 27 -31 29 -45 3z"/>
<path d="M540 1141 c0 -71 3 -91 14 -91 28 0 37 28 34 102 -3 67 -5 73 -25 76
-22 3 -23 1 -23 -87z"/>
<path d="M540 880 c0 -128 2 -136 34 -124 24 9 24 239 0 248 -32 12 -34 4 -34
-124z"/>
<path d="M1750 1115 c0 -106 1 -115 19 -115 26 0 31 18 31 125 0 93 -5 105
-41 105 -5 0 -9 -52 -9 -115z"/>
</g>
</svg>
